<svg xmlns:mydata="http://www.w3.org/2000/svg" mydata:contrastcolor="11111f" mydata:template="Contrast" mydata:presentation="2.5" mydata:layouttype="undefined" mydata:specialfontid="undefined" mydata:id1="839" mydata:id2="544" mydata:companyname="NAAB" mydata:companytagline="" version="1.1" xmlns="http://www.w3.org/2000/svg" xmlns:xlink="http://www.w3.org/1999/xlink" viewBox="0 0 550 470" style="background-color: rgba(252, 242, 217,0); background-image: radial-gradient(circle closest-side, rgba(255, 255, 255, 0.07) 0%, rgba(255, 255, 255, 0) 100%);"><style style="animation-play-state: paused;">#pulse-circle1 {
                transform: scale(0);
                opacity: 0;
                transform-origin: 50% 50%;
                animation: pulse 4s cubic-bezier(.5,.5,0,1) infinite;
            }

            #pulse-circle2 {
                transform: scale(0);
                opacity: 0;
                transform-origin: 50% 50%;
                animation: pulse 4s 0.75s cubic-bezier(.5,.5,0,1) infinite;
            }

            #pulse-circle3 {
                transform: scale(0);
                opacity: 0;
                transform-origin: 50% 50%;
                animation: pulse 4s 1.5s cubic-bezier(.5,.5,0,1) infinite;
            }
            
            @keyframes pulse {                
                12% {
                    opacity: 0.3;
                }
                
                50% {
                    transform: scale(1);
                }
                
                100% {                    
                    transform: scale(1);
                }                
            }</style><g fill="currentColor" fill-rule="none" stroke="none" stroke-width="1" stroke-linecap="butt" stroke-linejoin="miter" stroke-miterlimit="10" stroke-dasharray="" stroke-dashoffset="0" font-family="none" font-weight="none" font-size="none" text-anchor="none" style="mix-blend-mode: normal; animation-play-state: paused;"><g data-paper-data="{&quot;isGlobalGroup&quot;:true,&quot;bounds&quot;:{&quot;x&quot;:93.69646369190714,&quot;y&quot;:135.45810897735424,&quot;width&quot;:362.60707261618575,&quot;height&quot;:199.0837820452915}}" style="animation-play-state: paused;"><g data-paper-data="{&quot;isPrimaryText&quot;:true}" fill-rule="nonzero" style="animation-play-state: paused;"><path d="M112.28163,240.89621v-0.26176c-0.58897,0 -6.80584,3.73012 -18.58517,11.12492v82.78252h17.60356l-0.26176,-51.69817v-0.52353l-12.17198,9.75067l12.17198,-18.78149l38.02106,61.25252h0.26176l18.91237,-13.74255v-80.16489h-17.669v62.62678h-0.19632c-1.30881,-2.35587 -14.00432,-23.16602 -38.0865,-62.36501z" data-paper-data="{&quot;glyphName&quot;:&quot;N&quot;,&quot;glyphIndex&quot;:0,&quot;firstGlyphOfWord&quot;:true,&quot;word&quot;:1}" style="animation-play-state: paused;"/><path d="M221.04412,240.63445l-45.28498,93.90744h20.15574l32.65492,-66.22602l-4.18821,18.45429l23.36234,47.77173h20.02486z" data-paper-data="{&quot;glyphName&quot;:&quot;A&quot;,&quot;glyphIndex&quot;:1,&quot;word&quot;:1}" style="animation-play-state: paused;"/><path d="M321.82284,240.63445l-45.28498,93.90744h20.15574l32.65492,-66.22602l-4.18821,18.45429l23.36234,47.77173h20.02486z" data-paper-data="{&quot;glyphName&quot;:&quot;A&quot;,&quot;glyphIndex&quot;:2,&quot;word&quot;:1}" style="animation-play-state: paused;"/><path d="M401.07156,240.63445v15.44401h18.78149c8.8345,0 13.28447,3.14115 13.28447,9.42346v3.27204c0,1.30881 -0.91617,3.33748 -2.81395,6.08599c-2.74851,2.22498 -9.75067,3.33748 -20.94103,3.33748h-8.31097v15.44401h16.5565c12.89182,0 19.37046,4.05733 19.37046,12.17198c0,2.02866 -0.58897,4.58085 -1.70146,7.72201c-2.55219,3.73012 -8.24553,5.56246 -17.08003,5.56246h-13.80799c-1.57058,0 -7.13304,3.861 -16.62194,11.58301v-0.58897c5.56246,-7.0676 8.31097,-11.32125 8.31097,-12.6955v-60.729c-1.04705,-1.50514 -7.13304,-6.67495 -18.25796,-15.50945h-0.52353v93.38392h42.53647c10.40508,0 17.08003,-0.71985 19.89398,-2.22498c11.05948,-5.10438 16.5565,-12.82638 16.5565,-23.16602v-3.33748c0,-9.88155 -5.88967,-16.88371 -17.669,-21.00647v-0.52353c8.8345,-4.51541 13.28447,-10.99404 13.28447,-19.37046c0,-2.35587 -0.39264,-4.90805 -1.11249,-7.72201c-3.861,-11.05948 -13.28447,-16.5565 -28.20495,-16.5565z" data-paper-data="{&quot;glyphName&quot;:&quot;B&quot;,&quot;glyphIndex&quot;:3,&quot;lastGlyphOfWord&quot;:true,&quot;word&quot;:1}" style="animation-play-state: paused;"/></g><g data-paper-data="{&quot;isIcon&quot;:&quot;true&quot;,&quot;selectedEffects&quot;:{&quot;container&quot;:&quot;&quot;,&quot;transformation&quot;:&quot;&quot;,&quot;pattern&quot;:&quot;&quot;},&quot;fillRule&quot;:&quot;evenodd&quot;,&quot;fillRuleOriginal&quot;:&quot;evenodd&quot;,&quot;iconType&quot;:&quot;icon&quot;,&quot;rawIconId&quot;:&quot;2697928&quot;,&quot;combineTerms&quot;:&quot;sweet&quot;,&quot;iconStyle&quot;:&quot;standalone&quot;,&quot;bounds&quot;:{&quot;x&quot;:220.31081741220194,&quot;y&quot;:135.45810897735424,&quot;width&quot;:109.37836517559614,&quot;height&quot;:93.90744436098657},&quot;suitableAsStandaloneIcon&quot;:true}" fill-rule="evenodd" style="animation-play-state: paused;"><path d="M250.56343,135.45811l3.26644,3.26644l-3.26644,3.26644l-3.26644,-3.26644zM244.03055,135.45827l3.26644,3.26642l-3.26644,3.26644l-3.26644,-3.26644zM312.36573,150.83401c-3.82078,0 -6.92923,-3.10846 -6.92923,-6.92923c0,-3.82078 3.10846,-6.92923 6.92923,-6.92923c3.82078,0 6.92923,3.10846 6.92923,6.92923c0,3.82078 -3.10846,6.92923 -6.92923,6.92923zM312.36573,141.59503c-1.27359,0 -2.30974,1.03615 -2.30974,2.30974c0,1.27359 1.03615,2.30974 2.30974,2.30974c1.27359,0 2.30974,-1.03615 2.30974,-2.30974c0,-1.27359 -1.03615,-2.30974 -2.30974,-2.30974zM250.56343,141.99103l3.26644,3.26633l-3.26644,3.26644l-3.26644,-3.26644zM244.03055,141.9912l3.26644,3.26639l-3.26644,3.26644l-3.26644,-3.26644zM228.06005,157.76324c-3.18398,0 -5.77436,-2.59038 -5.77436,-5.77436c0,-3.18398 2.59038,-5.77436 5.77436,-5.77436c3.18398,0 5.77436,2.59038 5.77436,5.77436c0,3.18398 -2.59015,5.77436 -5.77436,5.77436zM264.14472,157.58562c1.00959,-5.76559 6.05246,-10.16126 12.1026,-10.16126c6.05037,0 11.09301,4.39568 12.1026,10.16126c5.07474,0.88879 9.08815,4.90197 9.97694,9.97671c5.17452,0.90611 9.24568,5.06134 10.02568,10.27767c4.54766,1.32048 8.0162,5.20478 8.72991,9.97694c4.39267,1.27567 7.77852,4.94308 8.64745,9.49236h0.40212c0.01086,0 0.02171,0 0.03257,0.00023h1.21447c1.27544,0 2.30974,1.0343 2.30974,2.30974c0,5.39949 -4.39267,9.79239 -9.79239,9.79239c-2.99782,0 -5.6852,-1.35397 -7.48288,-3.4824c-1.79744,2.12843 -4.48483,3.4824 -7.48265,3.4824c-2.99782,0 -5.68497,-1.35397 -7.48265,-3.4824c-1.79767,2.12843 -4.48506,3.4824 -7.48265,3.4824c-2.99782,0 -5.6852,-1.35397 -7.48288,-3.4824c-1.79744,2.12843 -4.48483,3.4824 -7.48265,3.4824c-2.99759,0 -5.68497,-1.35397 -7.48265,-3.4824c-1.79767,2.12843 -4.48506,3.4824 -7.48265,3.4824c-2.99759,0 -5.68497,-1.35397 -7.48288,-3.4824c-1.79767,2.12843 -4.48506,3.4824 -7.48265,3.4824c-2.99759,0 -5.68495,-1.35397 -7.48265,-3.4824c-1.79774,2.12843 -4.48515,3.4824 -7.48288,3.4824c-5.39949,0 -9.79239,-4.3929 -9.79239,-9.79239c0,-1.27544 1.03407,-2.30974 2.30974,-2.30974h1.64925c0.86874,-4.54951 4.2545,-8.21692 8.64748,-9.49259c0.84313,-5.63785 5.53076,-10.03607 11.30077,-10.43242c0.94261,-5.00152 4.92576,-8.94264 9.949,-9.82219c0.88879,-5.07474 4.9022,-9.08815 9.97717,-9.97671zM228.06005,150.83401c-0.6368,0 -1.15487,0.51808 -1.15487,1.15487c0,0.6368 0.51808,1.15487 1.15487,1.15487c0.6368,0 1.15487,-0.51808 1.15487,-1.15487c0,-0.6368 -0.51808,-1.15487 -1.15487,-1.15487zM276.24732,152.04385c3.52282,0 6.4987,2.38851 7.3928,5.63116c-3.02646,0.65019 -5.64247,2.41854 -7.3928,4.84977c-1.75056,-2.43124 -4.36657,-4.19935 -7.3928,-4.84977c0.8941,-3.24265 3.86975,-5.63116 7.3928,-5.63116zM325.26888,160.86407l3.26644,3.26644l-3.26644,3.26644l-3.26644,-3.26644zM318.73577,160.8643l3.26644,3.26644l-3.26644,3.26644l-3.26644,-3.26644zM258.87758,167.65172c3.02623,0.65019 5.64224,2.41854 7.39257,4.84977c1.75056,-2.43101 4.36634,-4.19935 7.39257,-4.84977c-0.8941,-3.24242 -3.86975,-5.63069 -7.39257,-5.63069c-3.52282,0 -6.49846,2.38828 -7.39257,5.63069zM286.22426,172.50126c-1.75056,-2.43101 -4.36634,-4.19935 -7.39257,-4.84954c0.89433,-3.24242 3.86998,-5.63069 7.39257,-5.63069c3.52259,0 6.49846,2.38828 7.39257,5.63069c-3.02623,0.65019 -5.64202,2.41854 -7.39257,4.84954zM325.26888,167.39695l3.26644,3.26644l-3.26644,3.26644l-3.26644,-3.26644zM318.736,167.39718l3.26644,3.26644l-3.26644,3.26644l-3.26644,-3.26644zM256.26411,171.99774c0.0097,0.00023 0.0194,0.00023 0.0291,0.00023c0.0097,0 0.0194,-0.00008 0.0291,-0.00023c3.43944,0.01293 6.35226,2.30189 7.30711,5.43621c-3.52744,0.40005 -6.60702,2.29981 -8.58324,5.04448c-1.52097,-2.11226 -3.69559,-3.72423 -6.22476,-4.53726c0.78208,-3.3914 3.82032,-5.92981 7.44269,-5.94343zM275.00006,182.47843c-1.52097,-2.11226 -3.69536,-3.72423 -6.22453,-4.53726c0.78208,-3.3914 3.82009,-5.92981 7.44269,-5.94343c0.00947,0.00023 0.01917,0.00023 0.02887,0.00023h0.00023c0.0097,0 0.01917,0 0.02887,-0.00023c3.43921,0.0127 6.35226,2.30189 7.30734,5.43621c-3.52767,0.40005 -6.60726,2.29981 -8.58347,5.04448zM294.95395,182.47866c1.97645,-2.74467 5.0558,-4.64466 8.58324,-5.04471c-0.95485,-3.13432 -3.86767,-5.42328 -7.30711,-5.43621c-0.00947,0.00023 -0.01917,0.00023 -0.02887,0.00023c-0.0097,0 -0.0194,0 -0.02887,-0.00023c-3.62237,0.01363 -6.66084,2.55204 -7.44292,5.94343c2.52917,0.81303 4.70357,2.425 6.22453,4.5375zM252.38096,187.33236c-0.98233,-3.10245 -3.88869,-5.35745 -7.31173,-5.35745c-3.42304,0 -6.32951,2.255 -7.31177,5.35745zM265.02312,181.97491c3.42327,0 6.32962,2.255 7.31173,5.35745h-14.62346c0.9821,-3.10245 3.88846,-5.35745 7.31173,-5.35745zM277.66527,187.33236h14.62369c-0.98233,-3.10245 -3.88869,-5.35745 -7.31173,-5.35745c-3.42304,0 -6.32962,2.255 -7.31196,5.35745zM312.24262,187.33236h-14.62323c0.9821,-3.10245 3.88846,-5.35745 7.3115,-5.35745c3.42304,0 6.32939,2.255 7.31173,5.35745zM321.32799,199.61904c0,-4.22776 -3.43967,-7.6672 -7.6672,-7.6672h-77.32147c-4.22776,0 -7.6672,3.43967 -7.6672,7.6672v0.00023c0,0.15937 -0.01614,0.31505 -0.04689,0.46518c-0.21527,1.05255 -1.14656,1.84456 -2.26286,1.84456h-0.88671c0.84998,1.69628 2.60539,2.86316 4.62826,2.86316c2.85253,0 5.1729,-2.3206 5.1729,-5.1729c0,-1.27544 1.03407,-2.30974 2.30974,-2.30974c1.27567,0 2.30974,1.0343 2.30974,2.30974c0,2.85253 2.3206,5.1729 5.1729,5.1729c2.85253,0 5.1729,-2.3206 5.1729,-5.1729c0,-1.09736 0.76545,-2.01641 1.7919,-2.25154c0.16653,-0.03811 0.33976,-0.05821 0.51785,-0.05821h0.00023c0.15937,0 0.31505,0.01617 0.46518,0.04689c1.05278,0.21527 1.84456,1.14679 1.84456,2.26286c0,2.85253 2.3206,5.1729 5.1729,5.1729c2.8523,0 5.1729,-2.3206 5.1729,-5.1729c0,-1.27544 1.03407,-2.30974 2.30974,-2.30974c0.07969,0 0.15845,0.00393 0.23605,0.01201c1.1648,0.11826 2.07369,1.10198 2.07369,2.29773c0,2.85253 2.3206,5.1729 5.1729,5.1729c2.8523,0 5.1729,-2.3206 5.1729,-5.1729c0,-1.0932 0.75991,-2.00925 1.78012,-2.24877c0.17023,-0.03996 0.34739,-0.06098 0.52963,-0.06098h0.00023c0.15937,0 0.31482,0.01617 0.46518,0.04689c1.05255,0.21527 1.84456,1.14679 1.84456,2.26286c0,2.85253 2.3206,5.1729 5.1729,5.1729c2.8523,0 5.1729,-2.3206 5.1729,-5.1729c0,-1.27544 1.0343,-2.30974 2.30974,-2.30974c1.27544,0 2.30974,1.0343 2.30974,2.30974c0,2.85253 2.3206,5.1729 5.1729,5.1729c2.8523,0 5.1729,-2.3206 5.1729,-5.1729c0,-1.11607 0.79201,-2.04759 1.84456,-2.26286c0.1409,-0.02887 0.28664,-0.04481 0.43562,-0.04666c0.0097,-0.00023 0.01963,-0.00023 0.02956,-0.00023h0.00023c0.15937,0 0.31505,0.01617 0.46542,0.04689c1.05255,0.2155 1.84433,1.14679 1.84433,2.26286c0,2.85253 2.3206,5.1729 5.1729,5.1729c2.02288,0 3.77805,-1.16712 4.62826,-2.86316h-0.88694c-1.09736,0 -2.01641,-0.76568 -2.25154,-1.7919c-0.02102,-0.09216 -0.03649,-0.18617 -0.0462,-0.28202c-0.00785,-0.07737 -0.01201,-0.15614 -0.01201,-0.23583zM274.03921,229.15629c0.30812,0.14136 0.63518,0.20926 0.95877,0.20926h0.00416h0.00185c0.32036,-0.00023 0.64372,-0.06721 0.94908,-0.2058c0.0984,-0.04458 0.19402,-0.09608 0.28595,-0.15429l20.45764,-12.44791c1.08974,-0.66313 1.43574,-2.08408 0.77261,-3.17382c-0.6629,-1.08974 -2.08362,-1.43574 -3.17382,-0.77261l-19.29538,11.74066l-19.29561,-11.74066c-1.08951,-0.6629 -2.51069,-0.31713 -3.17382,0.77261c-0.6629,1.08997 -0.31713,2.51069 0.77261,3.17382l20.45464,12.44606c0.09054,0.05751 0.18455,0.10833 0.28133,0.15268zM290.94376,229.36555c-0.77977,0 -1.5406,-0.39451 -1.97553,-1.10937c-0.66313,-1.08974 -0.31713,-2.51069 0.77261,-3.17382l20.49598,-12.47123c1.0902,-0.66313 2.51069,-0.31713 3.17382,0.77261c0.66313,1.08974 0.31713,2.51069 -0.77261,3.17382l-20.49598,12.47123c-0.37487,0.22797 -0.78924,0.33676 -1.19829,0.33676zM306.88516,229.36555c-0.77977,0 -1.5406,-0.39451 -1.97553,-1.10937c-0.66313,-1.08997 -0.31713,-2.51069 0.77261,-3.17382l20.49621,-12.47123c1.0902,-0.66313 2.51069,-0.31713 3.17382,0.77261c0.66313,1.08997 0.31713,2.51069 -0.77261,3.17382l-20.49621,12.47123c-0.3751,0.22797 -0.78947,0.33676 -1.19829,0.33676zM243.11496,229.36555c-0.40905,0 -0.82342,-0.10856 -1.19852,-0.33676l-20.49621,-12.47123c-1.08974,-0.66313 -1.4355,-2.08385 -0.77261,-3.17382c0.66313,-1.08974 2.08408,-1.4355 3.17382,-0.77261l20.49621,12.47123c1.08974,0.66313 1.4355,2.08385 0.77261,3.17382c-0.43469,0.71463 -1.19576,1.10937 -1.97529,1.10937zM259.05658,229.36555c-0.40905,0 -0.82342,-0.10856 -1.19852,-0.33676l-20.49621,-12.47123c-1.08974,-0.66313 -1.4355,-2.08385 -0.77261,-3.17382c0.66336,-1.08974 2.08431,-1.4355 3.17382,-0.77261l20.49621,12.47123c1.08974,0.66313 1.4355,2.08385 0.77261,3.17382c-0.43493,0.71463 -1.19576,1.10937 -1.97529,1.10937z" data-paper-data="{&quot;isPathIcon&quot;:true}" style="animation-play-state: paused;"/></g></g></g><circle id="pulse-circle1" cx="50%" cy="50%" r="45%" stroke="#eaaa00" stroke-width="5" fill="currentColor" style="animation-play-state: paused;"/><circle id="pulse-circle2" cx="50%" cy="50%" r="45%" stroke="#eaaa00" stroke-width="5" fill="currentColor" style="animation-play-state: paused;"/><circle id="pulse-circle3" cx="50%" cy="50%" r="45%" stroke="#eaaa00" stroke-width="5" fill="currentColor" style="animation-play-state: paused;"/></svg>