<svg xmlns="http://www.w3.org/2000/svg" viewBox="0 0 75 75" x="0px" y="0px">
    <path stroke-width="4" stroke="white"
        d="M19,60H41a4,4,0,0,0,4-4V42.933l8.808-2.41A3,3,0,0,0,56,37.64V20.435l.54-.151a4.736,4.736,0,0,0,2.784-6.995l-3.466-5.8-.009.006a.993.993,0,0,0-.576-.455L31.081.149a4,4,0,0,0-2.165,0L4.726,7.04a.994.994,0,0,0-.575.455l-.009-.006-3.465,5.8a4.736,4.736,0,0,0,2.783,7l.54.151V37.64a3,3,0,0,0,2.2,2.884L15,42.933V56A4,4,0,0,0,19,60Zm24-4a2,2,0,0,1-2,2H19a2,2,0,0,1-2-2V31a2,2,0,0,1,2-2H41a2,2,0,0,1,2,2ZM54,37.64a1,1,0,0,1-.724.955L45,40.859V31a4,4,0,0,0-4-4H31V18.613l2.674,4.458a4.744,4.744,0,0,0,4.065,2.3,4.665,4.665,0,0,0,1.271-.175L54,21Zm3.8-20.9A2.713,2.713,0,0,1,56,18.358l-17.53,4.911a2.738,2.738,0,0,1-3.082-1.227l-3.857-6.431,23-6.44,3.074,5.145A2.715,2.715,0,0,1,57.8,16.735ZM29.461,2.075a1.983,1.983,0,0,1,1.075,0L51.32,7.994,30,13.963,8.68,7.994ZM2.2,16.735a2.717,2.717,0,0,1,.2-2.421L5.466,9.171l23,6.44-3.857,6.431a2.735,2.735,0,0,1-3.082,1.227L4,18.358A2.715,2.715,0,0,1,2.2,16.735ZM6.728,38.6A1,1,0,0,1,6,37.64V21l14.99,4.2a4.741,4.741,0,0,0,5.336-2.123L29,18.613V27H19a4,4,0,0,0-4,4v9.859Z" />
    <path stroke-width="4" stroke="white"
        d="M24.293,32.293,22,34.586l-.293-.293a1,1,0,0,0-1.414,1.414l1,1a1,1,0,0,0,1.414,0l3-3a1,1,0,0,0-1.414-1.414Z" />
    <path stroke-width="4" stroke="white" d="M39,34H29a1,1,0,0,0,0,2H39a1,1,0,0,0,0-2Z" />
    <path stroke="white"
        d="M24.293,38.293,22,40.586l-.293-.293a1,1,0,0,0-1.414,1.414l1,1a1,1,0,0,0,1.414,0l3-3a1,1,0,0,0-1.414-1.414Z" />
    <path stroke-width="4" stroke="white" d="M39,40H29a1,1,0,0,0,0,2H39a1,1,0,0,0,0-2Z" />
    <path stroke-width="4" stroke="white"
        d="M24.293,44.293,22,46.586l-.293-.293a1,1,0,0,0-1.414,1.414l1,1a1,1,0,0,0,1.414,0l3-3a1,1,0,0,0-1.414-1.414Z" />
    <path stroke-width="4" stroke="white"
     d="M39,46H29a1,1,0,0,0,0,2H39a1,1,0,0,0,0-2Z" />
    <path stroke-width="4" stroke="white"
        d="M24.293,50.293,22,52.586l-.293-.293a1,1,0,0,0-1.414,1.414l1,1a1,1,0,0,0,1.414,0l3-3a1,1,0,0,0-1.414-1.414Z" />
    <path stroke-width="4" stroke="white" d="M39,52H29a1,1,0,0,0,0,2H39a1,1,0,0,0,0-2Z" />
</svg>