<svg xmlns:mydata="http://www.w3.org/2000/svg" mydata:contrastcolor="11111f" mydata:template="Contrast" mydata:presentation="2.5" mydata:layouttype="undefined" mydata:specialfontid="undefined" mydata:id1="839" mydata:id2="544" mydata:companyname="NAB" mydata:companytagline="" version="1.1" xmlns="http://www.w3.org/2000/svg" xmlns:xlink="http://www.w3.org/1999/xlink" viewBox="0 0 550 470" ><defs style="animation-play-state: running;"><g fill-rule="none" font-family="none" font-weight="none" font-size="none" text-anchor="none" style="mix-blend-mode: normal; animation-play-state: running;" id="interstellar-group"><g data-paper-data="{&quot;isGlobalGroup&quot;:true,&quot;bounds&quot;:{&quot;x&quot;:141.67772075500525,&quot;y&quot;:133.62708374928195,&quot;width&quot;:266.64455848998955,&quot;height&quot;:202.7458325014361}}" style="animation-play-state: running;"><g data-paper-data="{&quot;isPrimaryText&quot;:true}" fill-rule="nonzero" style="animation-play-state: running;"><path d="M160.60475,241.00467v-0.26658c-0.5998,0 -6.93103,3.79874 -18.92703,11.32956v84.30527h17.92736l-0.26658,-52.64914v-0.53316l-12.39587,9.93003l12.39587,-19.12697l38.72044,62.37923h0.26658l19.26025,-13.99534v-81.63949h-17.99401v63.77877h-0.19993c-1.33289,-2.3992 -14.26192,-23.59215 -38.78709,-63.51219z" data-paper-data="{&quot;glyphName&quot;:&quot;N&quot;,&quot;glyphIndex&quot;:0,&quot;firstGlyphOfWord&quot;:true,&quot;word&quot;:1}" style="animation-play-state: running;"></path><path d="M271.36788,240.73809l-46.11798,95.63483h20.5265l33.25559,-67.44421l-4.26525,18.79374l23.79208,48.65047h20.39321z" data-paper-data="{&quot;glyphName&quot;:&quot;A&quot;,&quot;glyphIndex&quot;:1,&quot;word&quot;:1}" style="animation-play-state: running;"></path><path d="M352.07434,240.73809v15.7281h19.12697c8.997,0 13.52883,3.19893 13.52883,9.5968v3.33222c0,1.33289 -0.93302,3.39887 -2.86571,6.19794c-2.79907,2.26591 -9.93003,3.39887 -21.32623,3.39887h-8.46385v15.7281h16.86105c13.12896,0 19.72677,4.13196 19.72677,12.39587c0,2.06598 -0.5998,4.66511 -1.73276,7.86405c-2.59913,3.79874 -8.3972,5.66478 -17.39421,5.66478h-14.06198c-1.59947,0 -7.26425,3.93202 -16.9277,11.79607v-0.5998c5.66478,-7.1976 8.46385,-11.52949 8.46385,-12.92903v-61.84608c-1.06631,-1.53282 -7.26425,-6.79774 -18.59381,-15.79474h-0.53316v95.10167h43.31891c10.59647,0 17.39421,-0.73309 20.25992,-2.26591c11.26292,-5.19827 16.86105,-13.06232 16.86105,-23.59215v-3.39887c0,-10.06332 -5.998,-17.19428 -17.99401,-21.39288v-0.53316c8.997,-4.59847 13.52883,-11.19627 13.52883,-19.72677c0,-2.3992 -0.39987,-4.99834 -1.13296,-7.86405c-3.93202,-11.26292 -13.52883,-16.86105 -28.72377,-16.86105z" data-paper-data="{&quot;glyphName&quot;:&quot;B&quot;,&quot;glyphIndex&quot;:2,&quot;lastGlyphOfWord&quot;:true,&quot;word&quot;:1}" style="animation-play-state: running;"></path></g><g data-paper-data="{&quot;fillRule&quot;:&quot;evenodd&quot;,&quot;fillRuleOriginal&quot;:&quot;evenodd&quot;,&quot;isIcon&quot;:true,&quot;iconStyle&quot;:&quot;standalone&quot;,&quot;selectedEffects&quot;:{&quot;container&quot;:&quot;&quot;,&quot;transformation&quot;:&quot;&quot;,&quot;pattern&quot;:&quot;&quot;},&quot;bounds&quot;:{&quot;x&quot;:219.30483619171127,&quot;y&quot;:133.62708374928195,&quot;width&quot;:111.39032761657745,&quot;height&quot;:95.63482665162081},&quot;iconType&quot;:&quot;icon&quot;,&quot;rawIconId&quot;:&quot;2697928&quot;,&quot;combineTerms&quot;:&quot;sweet&quot;,&quot;suitableAsStandaloneIcon&quot;:true}" fill-rule="evenodd" style="animation-play-state: running;"><path d="M250.11393,133.62708l3.32653,3.32653l-3.32653,3.32653l-3.32653,-3.32653zM243.46088,133.62725l3.32653,3.3265l-3.32653,3.32653l-3.32653,-3.32653zM313.05305,149.28581c-3.89106,0 -7.05669,-3.16564 -7.05669,-7.05669c0,-3.89106 3.16564,-7.05669 7.05669,-7.05669c3.89106,0 7.05669,3.16564 7.05669,7.05669c0,3.89106 -3.16564,7.05669 -7.05669,7.05669zM313.05305,139.87689c-1.29702,0 -2.35223,1.05521 -2.35223,2.35223c0,1.29702 1.05521,2.35223 2.35223,2.35223c1.29702,0 2.35223,-1.05521 2.35223,-2.35223c0,-1.29702 -1.05521,-2.35223 -2.35223,-2.35223zM250.11393,140.28018l3.32653,3.32641l-3.32653,3.32653l-3.32653,-3.32653zM243.46088,140.28034l3.32653,3.32648l-3.32653,3.32653l-3.32653,-3.32653zM227.19661,156.34251c-3.24255,0 -5.88058,-2.63803 -5.88058,-5.88058c0,-3.24255 2.63803,-5.88058 5.88058,-5.88058c3.24255,0 5.88058,2.63803 5.88058,5.88058c0,3.24255 -2.63779,5.88058 -5.88058,5.88058zM263.94505,156.16162c1.02816,-5.87164 6.16379,-10.34817 12.32522,-10.34817c6.16167,0 11.29706,4.47653 12.32522,10.34817c5.16809,0.90514 9.25532,4.99214 10.16046,10.16023c5.2697,0.92278 9.41575,5.15444 10.21009,10.46673c4.63131,1.34477 8.16365,5.30052 8.89049,10.16046c4.47347,1.29914 7.92161,5.03401 8.80652,9.66697h0.40952c0.01106,0 0.02211,0 0.03317,0.00023h1.23681c1.2989,0 2.35223,1.05333 2.35223,2.35223c0,5.49881 -4.47347,9.97252 -9.97252,9.97252c-3.05296,0 -5.78978,-1.37888 -7.62052,-3.54646c-1.83051,2.16758 -4.56733,3.54646 -7.62029,3.54646c-3.05296,0 -5.78955,-1.37888 -7.62029,-3.54646c-1.83074,2.16758 -4.56756,3.54646 -7.62029,3.54646c-3.05296,0 -5.78978,-1.37888 -7.62052,-3.54646c-1.83051,2.16758 -4.56733,3.54646 -7.62029,3.54646c-3.05272,0 -5.78955,-1.37888 -7.62029,-3.54646c-1.83074,2.16758 -4.56756,3.54646 -7.62029,3.54646c-3.05272,0 -5.78955,-1.37888 -7.62052,-3.54646c-1.83074,2.16758 -4.56756,3.54646 -7.62029,3.54646c-3.05272,0 -5.78952,-1.37888 -7.62029,-3.54646c-1.83081,2.16758 -4.56766,3.54646 -7.62052,3.54646c-5.49881,0 -9.97252,-4.47371 -9.97252,-9.97252c0,-1.2989 1.0531,-2.35223 2.35223,-2.35223h1.67959c0.88472,-4.63319 4.33276,-8.36807 8.80654,-9.6672c0.85864,-5.74156 5.63249,-10.22068 11.50864,-10.62432c0.95995,-5.09352 5.01637,-9.10713 10.132,-10.00286c0.90514,-5.16809 4.99238,-9.25532 10.1607,-10.16023zM227.19661,149.28581c-0.64851,0 -1.17611,0.52761 -1.17611,1.17611c0,0.64851 0.52761,1.17611 1.17611,1.17611c0.64851,0 1.17611,-0.52761 1.17611,-1.17611c0,-0.64851 -0.52761,-1.17611 -1.17611,-1.17611zM276.27026,150.51791c3.58762,0 6.61824,2.43244 7.52879,5.73474c-3.08213,0.66215 -5.74627,2.46302 -7.52879,4.93898c-1.78276,-2.47596 -4.44689,-4.27659 -7.52879,-4.93898c0.91055,-3.3023 3.94093,-5.73474 7.52879,-5.73474zM326.19355,159.50038l3.32653,3.32653l-3.32653,3.32653l-3.32653,-3.32653zM319.54027,159.50061l3.32653,3.32653l-3.32653,3.32653l-3.32653,-3.32653zM258.58102,166.41288c3.08189,0.66215 5.74603,2.46302 7.52855,4.93898c1.78276,-2.47572 4.44666,-4.27659 7.52855,-4.93898c-0.91055,-3.30206 -3.94093,-5.73427 -7.52855,-5.73427c-3.58762,0 -6.618,2.43221 -7.52855,5.73427zM286.43073,171.35163c-1.78276,-2.47572 -4.44666,-4.27659 -7.52855,-4.93875c0.91078,-3.30206 3.94116,-5.73427 7.52855,-5.73427c3.58739,0 6.618,2.43221 7.52855,5.73427c-3.08189,0.66215 -5.7458,2.46302 -7.52855,4.93875zM326.19355,166.15343l3.32653,3.32653l-3.32653,3.32653l-3.32653,-3.32653zM319.5405,166.15366l3.32653,3.32653l-3.32653,3.32653l-3.32653,-3.32653zM255.91947,170.83884c0.00988,0.00023 0.01976,0.00023 0.02964,0.00023c0.00988,0 0.01976,-0.00008 0.02964,-0.00023c3.50271,0.01317 6.4691,2.34423 7.44152,5.53621c-3.59233,0.4074 -6.72856,2.34212 -8.74113,5.13727c-1.54894,-2.15111 -3.76357,-3.79273 -6.33926,-4.62072c0.79646,-3.45378 3.89059,-6.03888 7.57959,-6.05276zM275.00006,181.51232c-1.54894,-2.15111 -3.76333,-3.79273 -6.33903,-4.62072c0.79646,-3.45378 3.89036,-6.03888 7.57959,-6.05276c0.00965,0.00023 0.01952,0.00023 0.0294,0.00023h0.00023c0.00988,0 0.01952,0 0.0294,-0.00023c3.50247,0.01294 6.4691,2.34423 7.44175,5.53621c-3.59256,0.4074 -6.72879,2.34212 -8.74136,5.13727zM295.32099,181.51256c2.01281,-2.79516 5.1488,-4.7301 8.74113,-5.13751c-0.97241,-3.19198 -3.93881,-5.52304 -7.44152,-5.53621c-0.00965,0.00023 -0.01952,0.00023 -0.0294,0.00023c-0.00988,0 -0.01976,0 -0.0294,-0.00023c-3.689,0.01388 -6.78336,2.59898 -7.57983,6.05276c2.5757,0.82799 4.79009,2.46961 6.33903,4.62096zM251.96489,186.45554c-1.0004,-3.15951 -3.96022,-5.456 -7.44622,-5.456c-3.486,0 -6.44594,2.29648 -7.44627,5.456zM264.8396,180.99954c3.48624,0 6.44605,2.29648 7.44622,5.456h-14.89245c1.00017,-3.15951 3.95998,-5.456 7.44622,-5.456zM277.7143,186.45554h14.89268c-1.0004,-3.15951 -3.96022,-5.456 -7.44622,-5.456c-3.486,0 -6.44605,2.29648 -7.44646,5.456zM312.92768,186.45554h-14.89221c1.00017,-3.15951 3.95998,-5.456 7.44599,-5.456c3.486,0 6.44582,2.29648 7.44622,5.456zM322.18017,198.96823c0,-4.30553 -3.50294,-7.80823 -7.80823,-7.80823h-78.74376c-4.30553,0 -7.80823,3.50294 -7.80823,7.80823v0.00023c0,0.1623 -0.01644,0.32084 -0.04775,0.47374c-0.21923,1.07191 -1.16765,1.87849 -2.30448,1.87849h-0.90302c0.86562,1.72748 2.65332,2.91583 4.7134,2.91583c2.905,0 5.26806,-2.36329 5.26806,-5.26806c0,-1.2989 1.0531,-2.35223 2.35223,-2.35223c1.29914,0 2.35223,1.05333 2.35223,2.35223c0,2.905 2.36329,5.26806 5.26806,5.26806c2.905,0 5.26806,-2.36329 5.26806,-5.26806c0,-1.11755 0.77953,-2.0535 1.82486,-2.29295c0.1696,-0.03881 0.34601,-0.05928 0.52737,-0.05928h0.00023c0.1623,0 0.32084,0.01646 0.47374,0.04775c1.07215,0.21923 1.87849,1.16788 1.87849,2.30448c0,2.905 2.36329,5.26806 5.26806,5.26806c2.90477,0 5.26806,-2.36329 5.26806,-5.26806c0,-1.2989 1.0531,-2.35223 2.35223,-2.35223c0.08115,0 0.16137,0.004 0.2404,0.01223c1.18623,0.12044 2.11183,1.12225 2.11183,2.34c0,2.905 2.36329,5.26806 5.26806,5.26806c2.90477,0 5.26806,-2.36329 5.26806,-5.26806c0,-1.11331 0.77388,-2.04621 1.81287,-2.29014c0.17336,-0.04069 0.35378,-0.0621 0.53937,-0.0621h0.00023c0.1623,0 0.32061,0.01646 0.47374,0.04775c1.07191,0.21923 1.87849,1.16788 1.87849,2.30448c0,2.905 2.36329,5.26806 5.26806,5.26806c2.90477,0 5.26806,-2.36329 5.26806,-5.26806c0,-1.2989 1.05333,-2.35223 2.35223,-2.35223c1.2989,0 2.35223,1.05333 2.35223,2.35223c0,2.905 2.36329,5.26806 5.26806,5.26806c2.90477,0 5.26806,-2.36329 5.26806,-5.26806c0,-1.1366 0.80658,-2.08525 1.87849,-2.30448c0.14349,-0.0294 0.29191,-0.04563 0.44363,-0.04751c0.00988,-0.00023 0.01999,-0.00023 0.03011,-0.00023h0.00023c0.1623,0 0.32084,0.01646 0.47398,0.04775c1.07191,0.21946 1.87826,1.16788 1.87826,2.30448c0,2.905 2.36329,5.26806 5.26806,5.26806c2.06009,0 3.84754,-1.18858 4.7134,-2.91583h-0.90326c-1.11755,0 -2.0535,-0.77977 -2.29295,-1.82486c-0.0214,-0.09385 -0.03717,-0.18959 -0.04705,-0.28721c-0.008,-0.0788 -0.01223,-0.15901 -0.01223,-0.24016zM274.02153,229.0488c0.31379,0.14396 0.64687,0.21311 0.97641,0.21311h0.00423h0.00188c0.32626,-0.00023 0.65557,-0.06845 0.96653,-0.20959c0.10021,-0.0454 0.19759,-0.09785 0.29121,-0.15713l20.83395,-12.67688c1.10978,-0.67533 1.46215,-2.12242 0.78682,-3.2322c-0.67509,-1.10978 -2.12195,-1.46215 -3.2322,-0.78682l-19.65031,11.95663l-19.65054,-11.95663c-1.10955,-0.67509 -2.55688,-0.32296 -3.2322,0.78682c-0.67509,1.11002 -0.32296,2.55688 0.78682,3.2322l20.83089,12.675c0.09221,0.05857 0.18794,0.11032 0.2865,0.15548zM291.23704,229.26191c-0.79411,0 -1.56894,-0.40176 -2.01187,-1.12978c-0.67533,-1.10978 -0.32296,-2.55688 0.78682,-3.2322l20.87299,-12.70064c1.11026,-0.67533 2.55688,-0.32296 3.2322,0.78682c0.67533,1.10978 0.32296,2.55688 -0.78682,3.2322l-20.87299,12.70064c-0.38177,0.23217 -0.80376,0.34295 -1.22034,0.34295zM307.47168,229.26191c-0.79411,0 -1.56894,-0.40176 -2.01187,-1.12978c-0.67533,-1.11002 -0.32296,-2.55688 0.78682,-3.2322l20.87323,-12.70064c1.11026,-0.67533 2.55688,-0.32296 3.2322,0.78682c0.67533,1.11002 0.32296,2.55688 -0.78682,3.2322l-20.87323,12.70064c-0.382,0.23217 -0.80399,0.34295 -1.22034,0.34295zM242.52845,229.26191c-0.41658,0 -0.83857,-0.11055 -1.22057,-0.34295l-20.87323,-12.70064c-1.10978,-0.67533 -1.46191,-2.12218 -0.78682,-3.2322c0.67533,-1.10978 2.12242,-1.46191 3.2322,-0.78682l20.87323,12.70064c1.10978,0.67533 1.46191,2.12218 0.78682,3.2322c-0.44269,0.72778 -1.21775,1.12978 -2.01163,1.12978zM258.76331,229.26191c-0.41658,0 -0.83857,-0.11055 -1.22057,-0.34295l-20.87323,-12.70064c-1.10978,-0.67533 -1.46191,-2.12218 -0.78682,-3.2322c0.67556,-1.10978 2.12265,-1.46191 3.2322,-0.78682l20.87323,12.70064c1.10978,0.67533 1.46191,2.12218 0.78682,3.2322c-0.44293,0.72778 -1.21775,1.12978 -2.01163,1.12978z" data-paper-data="{&quot;isPathIcon&quot;:true}" style="animation-play-state: running;"></path></g></g></g></defs><style style="animation-play-state: running;">
            .strokeItem{
                fill: none;
                stroke-width: 2;
                stroke-linejoin: round;
                stroke-dasharray: 70 10;
                stroke-dashoffset: 0;
                animation: stroke 6000ms infinite linear;
            }

            @keyframes stroke {
                100% {
                    stroke-dashoffset: -80;
                }
            }
        </style><use href="#interstellar-group" class="strokeItem" style="animation-delay: 0ms; animation-play-state: running;" stroke="#ffffff" fill="none" stroke-width="2px"></use></svg>